# xmcd
#
# Track frame offsets:
#	150
#	13905
#	27075
#	46572
#	55385
#	67550
#	81682
#	102077
#	112077
#	125762
#	137450
#	151277
#
# Disc length: 2164 seconds
#
# Revision: 0
# Processed by: cddbd v1.5.2PL0 Copyright (c) Steve Scherf et al.
# Submitted via: EasyCDDAExtractor 10.5.1.1
#
DISCID=9808720c
DTITLE=New Tradition - Behind The Cross
DYEAR=1999
DGENRE=Gospel
TTITLE0=When The Battles Over
TTITLE1=Blessing Me Again
TTITLE2=When He Was On The Cross
TTITLE3=God's Gonna Lead Me Out Of Bondage
TTITLE4=My Lord Is Able
TTITLE5=Jesus Loves Me
TTITLE6=Stand Behind Your Cross
TTITLE7=Here Am I, Send me
TTITLE8=That Sounds Like Home To Me
TTITLE9=I'm Looking For Jesus
TTITLE10=Something I Can Feel
TTITLE11=Come And Dine
EXTD=
EXTT0=
EXTT1=
EXTT2=
EXTT3=
EXTT4=
EXTT5=
EXTT6=
EXTT7=
EXTT8=
EXTT9=
EXTT10=
EXTT11=
PLAYORDER=
